<svg width="29" height="36" viewBox="0 0 29 36" fill="none" xmlns="http://www.w3.org/2000/svg">
<path d="M23.7291 18.6277C23.7638 15.9237 25.2115 13.3651 27.5081 11.9489C26.0593 9.8733 23.6326 8.55734 21.1078 8.4781C18.415 8.19458 15.8044 10.0944 14.4322 10.0944C13.0334 10.0944 10.9206 8.50625 8.64555 8.5532C5.68007 8.64931 2.91551 10.3405 1.47274 12.9411C-1.62864 18.3273 0.684712 26.2431 3.65557 30.5968C5.14195 32.7287 6.87911 35.1101 9.15215 35.0257C11.3764 34.9331 12.2072 33.6029 14.8921 33.6029C17.5521 33.6029 18.3315 35.0257 20.6507 34.972C23.0374 34.9331 24.5412 32.8306 25.9754 30.6785C27.0434 29.1594 27.8652 27.4805 28.4104 25.704C25.6055 24.514 23.7324 21.6826 23.7291 18.6277Z" fill="white"/>
<path d="M19.3486 5.61487C20.6499 4.0478 21.2911 2.03359 21.1358 0C19.1476 0.209467 17.3111 1.16263 15.9921 2.66958C14.7024 4.14194 14.0312 6.12071 14.1581 8.07657C16.147 8.09711 18.1022 7.16979 19.3486 5.61487Z" fill="white"/>
</svg>
