<svg width="33" height="31" viewBox="0 0 33 31" fill="none" xmlns="http://www.w3.org/2000/svg">
<path d="M11.3208 5.61328C11.3208 5.28967 11.0788 5.02734 10.7802 5.02734C8.98902 5.02734 7.53698 3.45336 7.53698 1.51172C7.53698 1.18811 7.29497 0.925781 6.99644 0.925781C6.6979 0.925781 6.4559 1.18811 6.4559 1.51172C6.4559 3.45336 5.00386 5.02734 3.21265 5.02734C2.91412 5.02734 2.67211 5.28967 2.67211 5.61328C2.67211 5.93689 2.91412 6.19922 3.21265 6.19922C5.00386 6.19922 6.4559 7.77321 6.4559 9.71484C6.4559 10.0385 6.6979 10.3008 6.99644 10.3008C7.29497 10.3008 7.53698 10.0385 7.53698 9.71484C7.53698 7.77321 8.98902 6.19922 10.7802 6.19922C11.0788 6.19922 11.3208 5.93689 11.3208 5.61328Z" fill="url(#paint0_linear_680_6845)" style="mix-blend-mode:screen"/>
<path d="M11.3208 5.61328C11.3208 5.28967 11.0788 5.02734 10.7802 5.02734C8.98902 5.02734 7.53698 3.45336 7.53698 1.51172C7.53698 1.18811 7.29497 0.925781 6.99644 0.925781C6.6979 0.925781 6.4559 1.18811 6.4559 1.51172C6.4559 3.45336 5.00386 5.02734 3.21265 5.02734C2.91412 5.02734 2.67211 5.28967 2.67211 5.61328C2.67211 5.93689 2.91412 6.19922 3.21265 6.19922C5.00386 6.19922 6.4559 7.77321 6.4559 9.71484C6.4559 10.0385 6.6979 10.3008 6.99644 10.3008C7.29497 10.3008 7.53698 10.0385 7.53698 9.71484C7.53698 7.77321 8.98902 6.19922 10.7802 6.19922C11.0788 6.19922 11.3208 5.93689 11.3208 5.61328Z" fill="white" fill-opacity="0.15"/>
<path d="M24.2937 4.67578C24.2937 4.15802 23.9064 3.73828 23.4289 3.73828C22.9513 3.73828 22.564 4.15802 22.564 4.67578C22.564 9.33493 19.0789 13.1133 14.7802 13.1133C14.3026 13.1133 13.9154 13.5331 13.9154 14.0508C13.9154 14.5685 14.3026 14.9883 14.7802 14.9883C19.0791 14.9883 22.564 18.7649 22.564 23.4258C22.564 23.9435 22.9513 24.3633 23.4289 24.3633C23.9064 24.3633 24.2937 23.9435 24.2937 23.4258C24.2937 18.7647 27.7776 14.9883 32.0775 14.9883C32.5551 14.9883 32.9424 14.5685 32.9424 14.0508C32.9424 13.5331 32.5551 13.1133 32.0775 13.1133C27.7778 13.1133 24.2937 9.33501 24.2937 4.67578Z" fill="url(#paint1_linear_680_6845)" style="mix-blend-mode:screen"/>
<path d="M24.2937 4.67578C24.2937 4.15802 23.9064 3.73828 23.4289 3.73828C22.9513 3.73828 22.564 4.15802 22.564 4.67578C22.564 9.33493 19.0789 13.1133 14.7802 13.1133C14.3026 13.1133 13.9154 13.5331 13.9154 14.0508C13.9154 14.5685 14.3026 14.9883 14.7802 14.9883C19.0791 14.9883 22.564 18.7649 22.564 23.4258C22.564 23.9435 22.9513 24.3633 23.4289 24.3633C23.9064 24.3633 24.2937 23.9435 24.2937 23.4258C24.2937 18.7647 27.7776 14.9883 32.0775 14.9883C32.5551 14.9883 32.9424 14.5685 32.9424 14.0508C32.9424 13.5331 32.5551 13.1133 32.0775 13.1133C27.7778 13.1133 24.2937 9.33501 24.2937 4.67578Z" fill="white" fill-opacity="0.15"/>
<path d="M8.72617 16.8633C8.72617 16.3456 8.33895 15.9258 7.8613 15.9258C7.38365 15.9258 6.99644 16.3456 6.99644 16.8633C6.99644 19.97 4.67317 22.4883 1.80725 22.4883C1.3296 22.4883 0.942383 22.9081 0.942383 23.4258C0.942383 23.9435 1.3296 24.3633 1.80725 24.3633C4.67317 24.3633 6.99644 26.8816 6.99644 29.9883C6.99644 30.506 7.38365 30.9258 7.8613 30.9258C8.33895 30.9258 8.72617 30.506 8.72617 29.9883C8.72617 26.8816 11.0494 24.3633 13.9154 24.3633C14.3929 24.3633 14.7802 23.9435 14.7802 23.4258C14.7802 22.9081 14.3929 22.4883 13.9154 22.4883C11.0494 22.4883 8.72617 19.97 8.72617 16.8633Z" fill="url(#paint2_linear_680_6845)" style="mix-blend-mode:screen"/>
<path d="M8.72617 16.8633C8.72617 16.3456 8.33895 15.9258 7.8613 15.9258C7.38365 15.9258 6.99644 16.3456 6.99644 16.8633C6.99644 19.97 4.67317 22.4883 1.80725 22.4883C1.3296 22.4883 0.942383 22.9081 0.942383 23.4258C0.942383 23.9435 1.3296 24.3633 1.80725 24.3633C4.67317 24.3633 6.99644 26.8816 6.99644 29.9883C6.99644 30.506 7.38365 30.9258 7.8613 30.9258C8.33895 30.9258 8.72617 30.506 8.72617 29.9883C8.72617 26.8816 11.0494 24.3633 13.9154 24.3633C14.3929 24.3633 14.7802 23.9435 14.7802 23.4258C14.7802 22.9081 14.3929 22.4883 13.9154 22.4883C11.0494 22.4883 8.72617 19.97 8.72617 16.8633Z" fill="white" fill-opacity="0.15"/>
<defs>
<linearGradient id="paint0_linear_680_6845" x1="-5.45762" y1="96.9258" x2="112.942" y2="96.9429" gradientUnits="userSpaceOnUse">
<stop stop-color="#E59CFF"/>
<stop offset="0.5" stop-color="#BA9CFF"/>
<stop offset="1" stop-color="#9CB2FF"/>
</linearGradient>
<linearGradient id="paint1_linear_680_6845" x1="-20.8758" y1="40.4712" x2="32.9424" y2="40.479" gradientUnits="userSpaceOnUse">
<stop stop-color="#E59CFF"/>
<stop offset="0.5" stop-color="#BA9CFF"/>
<stop offset="1" stop-color="#9CB2FF"/>
</linearGradient>
<linearGradient id="paint2_linear_680_6845" x1="0.942383" y1="30.9258" x2="74.9424" y2="30.9364" gradientUnits="userSpaceOnUse">
<stop stop-color="#E59CFF"/>
<stop offset="0.5" stop-color="#BA9CFF"/>
<stop offset="1" stop-color="#9CB2FF"/>
</linearGradient>
</defs>
</svg>
